<svg xmlns="http://www.w3.org/2000/svg" viewBox="0 0 24 24" fill="white"><path d="M12 0C5.373 0 0 5.373 0 12s5.373 12 12 12 12-5.373 12-12S18.627 0 12 0zm4.664 15.624c-.584.78-1.476 1.2-2.388 1.2-.636 0-1.14-.18-1.5-.468-.348-.276-.564-.66-.636-1.116-.024-.132-.036-.264-.036-.396 0-.528.168-1.08.456-1.572.384-.648.96-1.14 1.584-1.14.348 0 .624.132.792.384.156.228.204.516.132.816-.048.216-.18.324-.348.324-.108 0-.204-.06-.264-.168-.048-.084-.06-.192-.024-.3.036-.12.012-.204-.06-.264-.072-.06-.18-.084-.3-.084-.384 0-.768.348-1.02.852-.18.372-.288.804-.288 1.188 0 .732.444 1.2 1.14 1.2.612 0 1.164-.36 1.548-.84.084-.108.216-.132.312-.048.096.084.108.216.024.324l-.024.024v.012l-.048.048-.048.06c-.012 0-.012.012-.024.012zM8.4 14.4c0-.264.036-.54.12-.816.3-.972 1.128-1.776 2.028-1.776.396 0 .708.168.888.456.168.264.204.6.108.972-.072.288-.276.444-.528.444-.168 0-.324-.084-.408-.228-.072-.12-.084-.276-.036-.432.06-.18.024-.3-.084-.396-.108-.096-.276-.132-.468-.132-.576 0-1.104.516-1.44 1.26-.192.42-.3.888-.3 1.32 0 .888.54 1.44 1.38 1.44.78 0 1.452-.468 1.86-1.02.096-.12.24-.144.348-.048.108.096.12.252.024.372-.54.72-1.38 1.2-2.28 1.2-.48 0-.9-.132-1.2-.384-.408-.348-.636-.876-.636-1.5 0-.252.024-.504.084-.756l.012-.024c.024-.072.048-.12.06-.18.012-.024.012-.048.024-.072z"/></svg>
