<svg xmlns="http://www.w3.org/2000/svg" xmlns:xlink="http://www.w3.org/1999/xlink" width="500" zoomAndPan="magnify" viewBox="0 0 375 374.999991" height="500" preserveAspectRatio="xMidYMid meet" version="1.0"><defs><clipPath id="8866a7749d"><path d="M 30.679688 167.550781 L 148.296875 167.550781 L 148.296875 285.167969 L 30.679688 285.167969 Z M 30.679688 167.550781 " clip-rule="nonzero"/></clipPath><clipPath id="c25fcd1fce"><path d="M 148.296875 176.550781 L 148.296875 276.167969 C 148.296875 278.554688 147.347656 280.84375 145.660156 282.53125 C 143.972656 284.21875 141.683594 285.167969 139.296875 285.167969 L 39.679688 285.167969 C 37.292969 285.167969 35.003906 284.21875 33.316406 282.53125 C 31.628906 280.84375 30.679688 278.554688 30.679688 276.167969 L 30.679688 176.550781 C 30.679688 174.164062 31.628906 171.875 33.316406 170.1875 C 35.003906 168.5 37.292969 167.550781 39.679688 167.550781 L 139.296875 167.550781 C 141.683594 167.550781 143.972656 168.5 145.660156 170.1875 C 147.347656 171.875 148.296875 174.164062 148.296875 176.550781 Z M 148.296875 176.550781 " clip-rule="nonzero"/></clipPath><clipPath id="30f4ad5ab1"><path d="M 0.679688 0.550781 L 118.296875 0.550781 L 118.296875 118.167969 L 0.679688 118.167969 Z M 0.679688 0.550781 " clip-rule="nonzero"/></clipPath><clipPath id="c16d5d2984"><path d="M 118.296875 9.550781 L 118.296875 109.167969 C 118.296875 111.554688 117.347656 113.84375 115.660156 115.53125 C 113.972656 117.21875 111.683594 118.167969 109.296875 118.167969 L 9.679688 118.167969 C 7.292969 118.167969 5.003906 117.21875 3.316406 115.53125 C 1.628906 113.84375 0.679688 111.554688 0.679688 109.167969 L 0.679688 9.550781 C 0.679688 7.164062 1.628906 4.875 3.316406 3.1875 C 5.003906 1.5 7.292969 0.550781 9.679688 0.550781 L 109.296875 0.550781 C 111.683594 0.550781 113.972656 1.5 115.660156 3.1875 C 117.347656 4.875 118.296875 7.164062 118.296875 9.550781 Z M 118.296875 9.550781 " clip-rule="nonzero"/></clipPath><clipPath id="4f2002b59a"><rect x="0" width="119" y="0" height="119"/></clipPath><clipPath id="8e569070f2"><path d="M 226.703125 167.550781 L 344.320312 167.550781 L 344.320312 285.167969 L 226.703125 285.167969 Z M 226.703125 167.550781 " clip-rule="nonzero"/></clipPath><clipPath id="d3a875c46e"><path d="M 344.320312 176.550781 L 344.320312 276.167969 C 344.320312 278.554688 343.371094 280.84375 341.683594 282.53125 C 339.996094 284.21875 337.707031 285.167969 335.320312 285.167969 L 235.703125 285.167969 C 233.316406 285.167969 231.027344 284.21875 229.339844 282.53125 C 227.652344 280.84375 226.703125 278.554688 226.703125 276.167969 L 226.703125 176.550781 C 226.703125 174.164062 227.652344 171.875 229.339844 170.1875 C 231.027344 168.5 233.316406 167.550781 235.703125 167.550781 L 335.320312 167.550781 C 337.707031 167.550781 339.996094 168.5 341.683594 170.1875 C 343.371094 171.875 344.320312 174.164062 344.320312 176.550781 Z M 344.320312 176.550781 " clip-rule="nonzero"/></clipPath><clipPath id="6118f79237"><path d="M 0.703125 0.550781 L 118.320312 0.550781 L 118.320312 118.167969 L 0.703125 118.167969 Z M 0.703125 0.550781 " clip-rule="nonzero"/></clipPath><clipPath id="44dbddc37f"><path d="M 118.320312 9.550781 L 118.320312 109.167969 C 118.320312 111.554688 117.371094 113.84375 115.683594 115.53125 C 113.996094 117.21875 111.707031 118.167969 109.320312 118.167969 L 9.703125 118.167969 C 7.316406 118.167969 5.027344 117.21875 3.339844 115.53125 C 1.652344 113.84375 0.703125 111.554688 0.703125 109.167969 L 0.703125 9.550781 C 0.703125 7.164062 1.652344 4.875 3.339844 3.1875 C 5.027344 1.5 7.316406 0.550781 9.703125 0.550781 L 109.320312 0.550781 C 111.707031 0.550781 113.996094 1.5 115.683594 3.1875 C 117.371094 4.875 118.320312 7.164062 118.320312 9.550781 Z M 118.320312 9.550781 " clip-rule="nonzero"/></clipPath><clipPath id="4880035f12"><rect x="0" width="119" y="0" height="119"/></clipPath><clipPath id="218cdd8805"><path d="M 128.691406 61.230469 L 246.308594 61.230469 L 246.308594 178.847656 L 128.691406 178.847656 Z M 128.691406 61.230469 " clip-rule="nonzero"/></clipPath><clipPath id="9f360120ec"><path d="M 246.308594 70.230469 L 246.308594 169.847656 C 246.308594 172.234375 245.359375 174.523438 243.671875 176.210938 C 241.984375 177.898438 239.695312 178.847656 237.308594 178.847656 L 137.691406 178.847656 C 135.304688 178.847656 133.015625 177.898438 131.328125 176.210938 C 129.640625 174.523438 128.691406 172.234375 128.691406 169.847656 L 128.691406 70.230469 C 128.691406 67.84375 129.640625 65.554688 131.328125 63.867188 C 133.015625 62.179688 135.304688 61.230469 137.691406 61.230469 L 237.308594 61.230469 C 239.695312 61.230469 241.984375 62.179688 243.671875 63.867188 C 245.359375 65.554688 246.308594 67.84375 246.308594 70.230469 Z M 246.308594 70.230469 " clip-rule="nonzero"/></clipPath><clipPath id="3291569143"><path d="M 0.691406 0.230469 L 118.308594 0.230469 L 118.308594 117.847656 L 0.691406 117.847656 Z M 0.691406 0.230469 " clip-rule="nonzero"/></clipPath><clipPath id="a9204ac995"><path d="M 118.308594 9.230469 L 118.308594 108.847656 C 118.308594 111.234375 117.359375 113.523438 115.671875 115.210938 C 113.984375 116.898438 111.695312 117.847656 109.308594 117.847656 L 9.691406 117.847656 C 7.304688 117.847656 5.015625 116.898438 3.328125 115.210938 C 1.640625 113.523438 0.691406 111.234375 0.691406 108.847656 L 0.691406 9.230469 C 0.691406 6.84375 1.640625 4.554688 3.328125 2.867188 C 5.015625 1.179688 7.304688 0.230469 9.691406 0.230469 L 109.308594 0.230469 C 111.695312 0.230469 113.984375 1.179688 115.671875 2.867188 C 117.359375 4.554688 118.308594 6.84375 118.308594 9.230469 Z M 118.308594 9.230469 " clip-rule="nonzero"/></clipPath><clipPath id="87426fcdff"><rect x="0" width="119" y="0" height="118"/></clipPath></defs><g clip-path="url(#8866a7749d)"><g clip-path="url(#c25fcd1fce)"><g transform="matrix(1, 0, 0, 1, 30, 167)"><g clip-path="url(#4f2002b59a)"><g clip-path="url(#30f4ad5ab1)"><g clip-path="url(#c16d5d2984)"><path fill="#ff731c" d="M 0.679688 0.550781 L 118.296875 0.550781 L 118.296875 118.167969 L 0.679688 118.167969 Z M 0.679688 0.550781 " fill-opacity="1" fill-rule="nonzero"/></g></g></g></g></g></g><g clip-path="url(#8e569070f2)"><g clip-path="url(#d3a875c46e)"><g transform="matrix(1, 0, 0, 1, 226, 167)"><g clip-path="url(#4880035f12)"><g clip-path="url(#6118f79237)"><g clip-path="url(#44dbddc37f)"><path fill="#ff731c" d="M 0.703125 0.550781 L 118.320312 0.550781 L 118.320312 118.167969 L 0.703125 118.167969 Z M 0.703125 0.550781 " fill-opacity="1" fill-rule="nonzero"/></g></g></g></g></g></g><g clip-path="url(#218cdd8805)"><g clip-path="url(#9f360120ec)"><g transform="matrix(1, 0, 0, 1, 128, 61)"><g clip-path="url(#87426fcdff)"><g clip-path="url(#3291569143)"><g clip-path="url(#a9204ac995)"><path fill="#ff731c" d="M 0.691406 0.230469 L 118.308594 0.230469 L 118.308594 117.847656 L 0.691406 117.847656 Z M 0.691406 0.230469 " fill-opacity="1" fill-rule="nonzero"/></g></g></g></g></g></g></svg>